<svg width="2552" height="408" viewBox="0 0 2552 408" fill="none" xmlns="http://www.w3.org/2000/svg">
<path fill-rule="evenodd" clip-rule="evenodd" d="M1122.96 5.8413H1353.53V54.4082H1268.66V196.437H1207.83V54.4082H1122.96L1122.96 5.8413ZM1496.89 3.2544C1537.95 3.2544 1566.24 4.25578 1581.68 6.34198C1603.96 9.34612 1617.56 19.9441 1622.57 37.9689C1625.99 50.4027 1627.74 71.5151 1627.74 101.139C1627.74 130.93 1625.99 152.043 1622.57 164.56C1617.48 182.668 1603.88 193.183 1581.68 196.187C1566.24 198.19 1538.2 199.191 1497.48 199.191C1456.01 199.191 1427.55 198.19 1412.11 196.187C1389.83 193.183 1376.23 182.585 1371.22 164.56C1367.8 152.043 1366.05 130.596 1366.05 100.054C1366.05 71.0144 1367.8 50.3192 1371.22 37.9689C1376.23 19.8606 1389.91 9.26268 1412.11 6.34199C1427.47 4.25578 1455.75 3.2544 1496.89 3.2544ZM1497.06 52.7392C1466.27 52.7392 1447.74 53.5737 1441.49 55.1592C1434.31 56.9951 1429.64 61.251 1427.38 67.6765C1425.13 74.1854 1424.04 87.0365 1424.04 106.313C1424.04 117.996 1424.63 126.424 1425.88 131.598C1428.22 141.278 1435.23 146.869 1446.99 148.288C1455.59 149.372 1472.44 149.956 1497.4 149.956C1520.76 149.956 1536.28 149.539 1544.04 148.705C1551.72 147.87 1557.48 145.951 1561.15 143.114C1564.57 140.527 1566.74 136.688 1567.99 131.598C1569.16 126.507 1569.83 118.246 1569.83 106.647C1569.83 92.9613 1569.33 82.864 1568.49 76.4385C1567.49 70.013 1565.91 65.173 1563.4 61.9185C1560.4 57.8296 1555.23 55.2427 1548.22 54.3247C1541.04 53.1564 1524.02 52.7392 1497.06 52.7392ZM1650.77 196.437V5.8413H1781.2C1806.99 5.8413 1823.68 6.34199 1831.11 7.34336C1849.96 9.84681 1862.73 15.9385 1869.41 25.6185C1876 35.2151 1879.34 52.4889 1879.34 77.273C1879.34 100.805 1876.58 117.328 1871.08 126.841C1867.41 133.267 1862.15 138.19 1855.47 141.528C1848.8 144.866 1839.62 147.203 1828.02 148.538C1819.76 149.456 1804.32 149.956 1781.7 149.956H1708.77V196.521H1650.77L1650.77 196.437ZM1708.77 102.141H1781.29C1794.47 102.057 1802.48 101.89 1805.4 101.556C1808.32 101.306 1810.91 100.555 1813.25 99.3868C1816.17 97.8013 1818.25 95.3813 1819.34 92.2103C1820.42 89.0392 1821.01 84.0323 1821.01 77.273C1821.01 70.5137 1820.26 65.5068 1818.92 62.3358C1817.5 59.1647 1815.08 56.9116 1811.58 55.493C1808.99 54.4082 1798.89 53.824 1781.29 53.5737H1708.77L1708.77 102.141Z" fill="#010202"/>
<path fill-rule="evenodd" clip-rule="evenodd" d="M185.088 119.999H243.168C243.586 129.261 243.752 135.27 243.752 137.94C243.752 152.627 241.583 164.059 237.16 172.321C232.32 181.584 222.89 187.926 208.788 191.264C194.768 194.601 170.485 196.27 135.937 196.27C99.6373 196.27 73.7683 195.519 58.4138 194.184C42.9759 192.766 31.3765 190.095 23.5324 186.09C16.6062 182.501 11.349 177.578 7.92758 171.486C4.5062 165.311 2.25311 156.883 1.25172 146.201C0.417244 137.606 0 121.918 0 99.3869C0 77.3566 0.417244 61.418 1.25172 51.6545C2.0862 41.8911 3.75517 34.2973 6.17517 28.8731C11.4324 16.8566 22.1972 9.01242 38.3862 5.42415C54.5752 1.83587 87.2869 0 136.438 0C160.972 0 178.913 0.584137 190.012 1.66896C201.194 2.83724 210.123 4.92345 216.715 7.92759C225.31 12.0166 231.402 18.1083 234.99 26.1193C238.495 34.1304 240.248 46.0634 240.248 61.6683C240.248 62.5028 240.164 65.6738 239.997 71.1814H182.001C181.75 64.9228 181.25 60.6669 180.832 58.5807C180.332 56.411 179.247 54.7421 177.661 53.3235C175.408 51.4041 169.734 49.9855 160.721 49.151C151.709 48.2331 138.023 47.8159 119.665 47.8159C101.557 47.8159 88.9559 48.1497 81.9462 48.9841C75.02 49.7352 70.0131 51.3207 67.1759 53.6572C63.6711 56.411 61.3345 61.1676 59.9993 67.6765C58.7476 74.269 57.9965 84.7835 57.9965 99.1366C57.9965 113.573 58.5807 123.67 59.8324 129.595C61.0841 135.52 63.3372 139.776 66.8421 142.279C70.0965 144.783 75.2703 146.452 82.4469 147.286C89.54 148.121 102.141 148.538 120.165 148.538C142.363 148.538 157.217 148.121 164.643 147.453C172.07 146.702 176.994 145.033 179.664 142.613C183.086 139.442 184.921 131.848 185.088 119.999ZM1898.62 3.33795H2108.99V48.0662H1955.61V75.4373H2101.31V117.078H1955.61V147.87H2110.16V193.517H1898.62L1898.62 3.33795ZM263.363 2.9207H324.197V71.1814H455.377V2.9207H516.211V193.517H455.377V124.672H324.197V193.517H263.363V2.9207ZM542.915 193.433V2.9207H683.191C716.07 3.00415 735.764 3.33794 742.272 3.92208C748.781 4.50623 755.04 6.67588 761.048 10.4311C768.308 14.8538 773.315 20.8621 775.986 28.5393C778.656 36.2166 779.991 48.3166 779.991 64.8393C779.991 78.6918 779.157 88.9559 777.404 95.4649C775.652 101.974 772.481 107.148 767.724 111.07C762.634 115.242 754.957 118.163 744.693 119.748C756.793 120.666 765.638 124.171 770.895 130.263C773.983 133.851 775.902 138.274 776.737 143.448C777.571 148.621 777.988 159.386 777.988 175.909V193.6H720.826V183.419C720.826 172.821 720.409 165.311 719.658 160.805C718.824 156.299 717.405 152.877 715.235 150.374C713.066 148.121 710.145 146.786 706.306 146.118C702.551 145.534 694.624 145.2 682.607 145.2H600.744V193.517H542.915L542.915 193.433ZM600.911 97.4676H682.607C696.71 97.2173 705.221 96.9669 707.975 96.7166C710.729 96.4662 712.982 95.7987 714.985 94.5469C717.488 92.9614 719.241 90.6249 720.242 87.5373C721.244 84.3662 721.744 79.6931 721.744 73.3511C721.744 67.1759 721.16 62.5028 719.992 59.4152C718.824 56.3276 716.821 54.1579 713.984 52.7393C711.897 51.738 709.477 51.2373 706.724 51.0704C703.886 50.9035 695.792 50.7366 682.524 50.6531H600.995V97.4676H600.911ZM800.019 2.9207H860.853V193.517H800.019V2.9207ZM880.88 130.346H937.041C936.958 139.776 938.877 145.951 942.715 148.705C945.553 150.541 949.141 151.542 953.564 151.876C957.987 152.21 971.922 152.46 995.288 152.627C1019.82 152.543 1034.51 152.377 1039.52 152.126C1044.44 151.876 1048.36 151.208 1051.2 149.957C1055.45 148.204 1057.62 143.364 1057.62 135.603C1057.62 129.929 1056.12 126.174 1053.12 124.255C1050.11 122.335 1043.94 121.334 1034.68 121.083C1027.5 121.083 1012.31 120.499 989.196 119.415C965.497 118.246 950.059 117.662 942.882 117.412C928.946 116.911 918.182 115.576 910.755 113.406C903.244 111.237 897.403 107.648 893.23 102.725C886.054 94.4635 882.549 80.778 882.549 61.6683C882.549 40.1386 886.638 24.951 894.816 16.1055C901.075 9.26276 910.671 4.84001 923.522 2.9207C936.457 1.00138 962.743 0.0834541 1002.3 0.0834541C1030.34 0.0834541 1049.95 0.917938 1061.3 2.50345C1078.74 4.92345 1090.75 9.76345 1097.26 17.1069C1103.77 24.4504 1107.02 36.8007 1107.02 54.0745V63.0035H1050.78C1050.61 57.6628 1050.2 54.0745 1049.45 52.0717C1048.78 50.1524 1047.44 48.5669 1045.36 47.3152C1042.85 45.8131 1038.43 44.8952 1032.09 44.4779C1025.83 44.0607 1012.39 43.8938 991.866 43.8938C967.249 43.8938 952.228 44.6448 946.804 46.1469C941.38 47.7324 938.71 51.9883 938.71 58.9979C938.71 65.6738 941.38 69.7628 946.804 71.2648C951.31 72.4331 971.755 73.6014 1008.31 74.7697C1039.1 75.6876 1059.63 76.7724 1070.06 78.0242C1080.4 79.2759 1088.67 81.6124 1094.84 85.2007C1101.77 89.3731 1106.77 95.1311 1109.61 102.475C1112.53 109.734 1113.95 120.249 1113.95 133.935C1113.95 151.876 1111.53 165.228 1106.69 173.99C1103.02 180.415 1098.01 185.255 1091.59 188.343C1085.08 191.514 1075.98 193.6 1064.3 194.768C1051.7 195.853 1028.33 196.437 994.119 196.437C965.496 196.437 944.3 195.686 930.615 194.184C916.929 192.682 906.665 190.012 899.739 186.257C892.562 182.084 887.639 176.743 884.885 169.984C882.131 163.308 880.796 153.044 880.796 139.359L880.88 130.346ZM2128.68 2.9207H2189.52V193.517H2128.68V2.9207ZM2202.87 2.9207H2433.44V51.4876H2348.57V193.517H2287.73V51.4876H2202.87L2202.87 2.9207Z" fill="#010202"/>
<path fill-rule="evenodd" clip-rule="evenodd" d="M2550.18 21.6966C2549.18 13.6021 2547.76 9.68 2544.51 6.50897C2539.33 1.33517 2530.49 0 2502.78 0C2495.02 0 2481.08 0.333794 2475.99 0.751034C2465.73 1.33517 2461.72 2.42 2457.72 5.50759C2451.79 10.0972 2449.88 18.6924 2449.88 40.389C2449.88 62.0855 2451.04 69.2621 2455.97 74.1855C2459.64 78.0242 2463.56 79.6097 2471.74 80.3607C2476.5 80.8614 2494.35 81.3621 2506.54 81.3621C2521.31 81.3621 2529.82 80.7779 2536.24 79.4428C2543.75 77.7738 2548.09 73.0173 2549.6 64.9228C2550.6 59.3317 2551.18 50.4862 2551.18 41.0565C2551.01 34.4641 2550.68 26.1193 2550.18 21.6966ZM2538.66 61.8352C2537.66 66.6752 2535.16 69.2621 2530.32 70.0966C2524.98 71.0979 2513.63 71.6821 2501.95 71.6821C2496.11 71.6821 2482.42 71.3483 2477.91 70.931C2469.4 70.3469 2466.4 69.5959 2464.23 67.2593C2461.72 64.5055 2460.81 57.1621 2460.81 39.5545C2460.81 24.2 2461.97 16.4393 2465.06 13.769C2468.23 10.8483 2476.49 9.76344 2496.52 9.76344C2517.13 9.76344 2523.39 10.0138 2529.57 11.0152C2534.99 11.8497 2537.91 14.2696 2538.66 18.8593C2539.41 22.531 2539.83 32.211 2539.83 41.3069C2540 48.7338 2539.42 57.4959 2538.66 61.8352ZM2522.14 47.0648C2521.06 45.8966 2519.39 45.1455 2516.97 44.9786C2518.97 44.6448 2520.56 44.0607 2521.56 43.2262C2522.47 42.4752 2523.14 41.3904 2523.48 40.1386C2523.81 38.8035 2523.98 36.8007 2523.98 34.0469C2523.98 30.7924 2523.73 28.3724 2523.14 26.8704C2522.64 25.3683 2521.64 24.1166 2520.22 23.2821C2519.05 22.5311 2517.8 22.1138 2516.47 22.0304C2515.13 21.9469 2511.29 21.8635 2504.7 21.8635H2476.83V59.6655H2488.34V49.9855H2504.62C2507.04 49.9855 2508.54 50.069 2509.29 50.1524C2510.04 50.2359 2510.63 50.5697 2511.04 50.9869C2511.46 51.4876 2511.71 52.1552 2511.88 53.0731C2512.04 53.991 2512.13 55.4931 2512.13 57.5793V59.5821H2523.48V56.0773C2523.48 52.8228 2523.39 50.6531 2523.23 49.6518C2523.14 48.6504 2522.73 47.7324 2522.14 47.0648ZM2512.13 38.5531C2511.96 39.1372 2511.54 39.6379 2511.04 39.9717C2510.63 40.2221 2510.21 40.389 2509.62 40.389C2509.12 40.4724 2507.37 40.4724 2504.62 40.5559H2488.43V31.2097H2504.62C2507.29 31.2097 2508.87 31.2931 2509.46 31.2931C2510.04 31.2931 2510.46 31.46 2510.88 31.6269C2511.46 31.8773 2511.88 32.378 2512.04 32.9621C2512.29 33.5462 2512.38 34.4642 2512.38 35.7159C2512.38 36.9676 2512.29 37.969 2512.13 38.5531Z" fill="#010202"/>
<path d="M505.092 378V284.909H542.365C549.213 284.909 554.925 285.924 559.501 287.954C564.077 289.985 567.516 292.803 569.819 296.409C572.122 299.985 573.274 304.106 573.274 308.773C573.274 312.409 572.546 315.606 571.092 318.364C569.637 321.091 567.637 323.333 565.092 325.091C562.577 326.818 559.698 328.045 556.455 328.773V329.682C560.001 329.833 563.319 330.833 566.41 332.682C569.531 334.53 572.061 337.121 574.001 340.454C575.94 343.757 576.91 347.697 576.91 352.273C576.91 357.212 575.683 361.621 573.228 365.5C570.804 369.348 567.213 372.394 562.455 374.636C557.698 376.879 551.834 378 544.865 378H505.092ZM524.774 361.909H540.819C546.304 361.909 550.304 360.864 552.819 358.773C555.334 356.651 556.592 353.833 556.592 350.318C556.592 347.742 555.971 345.47 554.728 343.5C553.486 341.53 551.713 339.985 549.41 338.864C547.137 337.742 544.425 337.182 541.274 337.182H524.774V361.909ZM524.774 323.864H539.365C542.061 323.864 544.455 323.394 546.546 322.454C548.668 321.485 550.334 320.121 551.546 318.364C552.789 316.606 553.41 314.5 553.41 312.045C553.41 308.682 552.213 305.97 549.819 303.909C547.455 301.848 544.092 300.818 539.728 300.818H524.774V323.864Z" fill="black"/>
<path d="M675.262 331.454C675.262 341.606 673.338 350.242 669.49 357.364C665.671 364.485 660.459 369.924 653.853 373.682C647.277 377.409 639.883 379.273 631.671 379.273C623.399 379.273 615.974 377.394 609.399 373.636C602.823 369.879 597.626 364.439 593.808 357.318C589.99 350.197 588.08 341.576 588.08 331.454C588.08 321.303 589.99 312.667 593.808 305.545C597.626 298.424 602.823 293 609.399 289.273C615.974 285.515 623.399 283.636 631.671 283.636C639.883 283.636 647.277 285.515 653.853 289.273C660.459 293 665.671 298.424 669.49 305.545C673.338 312.667 675.262 321.303 675.262 331.454ZM655.308 331.454C655.308 324.879 654.323 319.333 652.353 314.818C650.414 310.303 647.671 306.879 644.126 304.545C640.58 302.212 636.429 301.045 631.671 301.045C626.914 301.045 622.762 302.212 619.217 304.545C615.671 306.879 612.914 310.303 610.944 314.818C609.005 319.333 608.035 324.879 608.035 331.454C608.035 338.03 609.005 343.576 610.944 348.091C612.914 352.606 615.671 356.03 619.217 358.364C622.762 360.697 626.914 361.864 631.671 361.864C636.429 361.864 640.58 360.697 644.126 358.364C647.671 356.03 650.414 352.606 652.353 348.091C654.323 343.576 655.308 338.03 655.308 331.454Z" fill="black"/>
<path d="M747.342 284.909H767.024V345.364C767.024 352.151 765.402 358.091 762.16 363.182C758.948 368.273 754.448 372.242 748.66 375.091C742.872 377.909 736.13 379.318 728.433 379.318C720.705 379.318 713.948 377.909 708.16 375.091C702.372 372.242 697.872 368.273 694.66 363.182C691.448 358.091 689.842 352.151 689.842 345.364V284.909H709.524V343.682C709.524 347.227 710.296 350.379 711.842 353.136C713.418 355.894 715.63 358.06 718.478 359.636C721.327 361.212 724.645 362 728.433 362C732.251 362 735.569 361.212 738.387 359.636C741.236 358.06 743.433 355.894 744.978 353.136C746.554 350.379 747.342 347.227 747.342 343.682V284.909Z" fill="black"/>
<path d="M779.671 301.136V284.909H856.126V301.136H827.626V378H808.171V301.136H779.671Z" fill="black"/>
<path d="M888.399 284.909V378H868.717V284.909H888.399Z" fill="black"/>
<path d="M939.728 345.636H956.455L964.865 356.454L973.137 366.091L988.728 385.636H970.365L959.637 372.454L954.137 364.636L939.728 345.636ZM990.137 331.454C990.137 341.606 988.213 350.242 984.365 357.364C980.546 364.485 975.334 369.924 968.728 373.682C962.152 377.409 954.758 379.273 946.546 379.273C938.274 379.273 930.849 377.394 924.274 373.636C917.698 369.879 912.501 364.439 908.683 357.318C904.865 350.197 902.955 341.576 902.955 331.454C902.955 321.303 904.865 312.667 908.683 305.545C912.501 298.424 917.698 293 924.274 289.273C930.849 285.515 938.274 283.636 946.546 283.636C954.758 283.636 962.152 285.515 968.728 289.273C975.334 293 980.546 298.424 984.365 305.545C988.213 312.667 990.137 321.303 990.137 331.454ZM970.183 331.454C970.183 324.879 969.198 319.333 967.228 314.818C965.289 310.303 962.546 306.879 959.001 304.545C955.455 302.212 951.304 301.045 946.546 301.045C941.789 301.045 937.637 302.212 934.092 304.545C930.546 306.879 927.789 310.303 925.819 314.818C923.88 319.333 922.91 324.879 922.91 331.454C922.91 338.03 923.88 343.576 925.819 348.091C927.789 352.606 930.546 356.03 934.092 358.364C937.637 360.697 941.789 361.864 946.546 361.864C951.304 361.864 955.455 360.697 959.001 358.364C962.546 356.03 965.289 352.606 967.228 348.091C969.198 343.576 970.183 338.03 970.183 331.454Z" fill="black"/>
<path d="M1062.22 284.909H1081.9V345.364C1081.9 352.151 1080.28 358.091 1077.03 363.182C1073.82 368.273 1069.32 372.242 1063.53 375.091C1057.75 377.909 1051 379.318 1043.31 379.318C1035.58 379.318 1028.82 377.909 1023.03 375.091C1017.25 372.242 1012.75 368.273 1009.53 363.182C1006.32 358.091 1004.72 352.151 1004.72 345.364V284.909H1024.4V343.682C1024.4 347.227 1025.17 350.379 1026.72 353.136C1028.29 355.894 1030.5 358.06 1033.35 359.636C1036.2 361.212 1039.52 362 1043.31 362C1047.13 362 1050.44 361.212 1053.26 359.636C1056.11 358.06 1058.31 355.894 1059.85 353.136C1061.43 350.379 1062.22 347.227 1062.22 343.682V284.909Z" fill="black"/>
<path d="M1098.09 378V284.909H1160.82V301.136H1117.77V323.318H1157.59V339.545H1117.77V361.773H1161V378H1098.09Z" fill="black"/>
<path d="M1206.09 378V284.909H1267.73V301.136H1225.77V323.318H1263.64V339.545H1225.77V378H1206.09Z" fill="black"/>
<path d="M1280.97 378V284.909H1317.69C1324.72 284.909 1330.72 286.167 1335.69 288.682C1340.69 291.167 1344.5 294.697 1347.1 299.273C1349.74 303.818 1351.06 309.167 1351.06 315.318C1351.06 321.5 1349.72 326.818 1347.06 331.273C1344.39 335.697 1340.53 339.091 1335.47 341.454C1330.44 343.818 1324.35 345 1317.19 345H1292.6V329.182H1314.01C1317.77 329.182 1320.89 328.667 1323.38 327.636C1325.86 326.606 1327.71 325.06 1328.92 323C1330.16 320.939 1330.78 318.379 1330.78 315.318C1330.78 312.227 1330.16 309.621 1328.92 307.5C1327.71 305.379 1325.85 303.773 1323.33 302.682C1320.85 301.56 1317.71 301 1313.92 301H1300.65V378H1280.97ZM1331.24 335.636L1354.38 378H1332.65L1310.01 335.636H1331.24Z" fill="black"/>
<path d="M1381.01 378H1359.92L1392.06 284.909H1417.42L1449.51 378H1428.42L1405.1 306.182H1404.38L1381.01 378ZM1379.69 341.409H1429.51V356.773H1379.69V341.409Z" fill="black"/>
<path d="M1538.58 284.909V378H1521.58L1481.08 319.409H1480.4V378H1460.72V284.909H1477.99L1518.17 343.454H1518.99V284.909H1538.58Z" fill="black"/>
<path d="M1636.98 317.5H1617.07C1616.71 314.924 1615.96 312.636 1614.84 310.636C1613.72 308.606 1612.28 306.879 1610.52 305.454C1608.77 304.03 1606.74 302.939 1604.43 302.182C1602.16 301.424 1599.69 301.045 1597.02 301.045C1592.21 301.045 1588.01 302.242 1584.43 304.636C1580.86 307 1578.08 310.454 1576.11 315C1574.14 319.515 1573.16 325 1573.16 331.454C1573.16 338.091 1574.14 343.667 1576.11 348.182C1578.11 352.697 1580.9 356.106 1584.48 358.409C1588.05 360.712 1592.19 361.864 1596.89 361.864C1599.52 361.864 1601.96 361.515 1604.21 360.818C1606.48 360.121 1608.49 359.106 1610.25 357.773C1612.01 356.409 1613.46 354.757 1614.61 352.818C1615.8 350.879 1616.61 348.667 1617.07 346.182L1636.98 346.273C1636.46 350.545 1635.18 354.667 1633.11 358.636C1631.08 362.576 1628.34 366.106 1624.89 369.227C1621.46 372.318 1617.37 374.773 1612.61 376.591C1607.89 378.379 1602.54 379.273 1596.57 379.273C1588.27 379.273 1580.84 377.394 1574.3 373.636C1567.78 369.879 1562.63 364.439 1558.84 357.318C1555.08 350.197 1553.21 341.576 1553.21 331.454C1553.21 321.303 1555.11 312.667 1558.93 305.545C1562.75 298.424 1567.93 293 1574.48 289.273C1581.02 285.515 1588.39 283.636 1596.57 283.636C1601.96 283.636 1606.96 284.394 1611.57 285.909C1616.21 287.424 1620.31 289.636 1623.89 292.545C1627.46 295.424 1630.37 298.954 1632.61 303.136C1634.89 307.318 1636.34 312.106 1636.98 317.5ZM1591.71 377.727H1600.61L1599.89 381.682C1603.01 382.167 1605.55 383.333 1607.52 385.182C1609.52 387.03 1610.54 389.545 1610.57 392.727C1610.6 397.242 1608.51 400.833 1604.3 403.5C1600.08 406.197 1594.18 407.545 1586.57 407.545L1586.39 398.909C1590.21 398.909 1593.19 398.439 1595.34 397.5C1597.52 396.591 1598.66 395.167 1598.75 393.227C1598.81 391.379 1598.1 389.97 1596.61 389C1595.13 388.03 1592.81 387.348 1589.66 386.954L1591.71 377.727Z" fill="black"/>
<path d="M1665.39 378H1644.3L1676.43 284.909H1701.8L1733.89 378H1712.8L1689.48 306.182H1688.75L1665.39 378ZM1664.07 341.409H1713.89V356.773H1664.07V341.409Z" fill="black"/>
<path d="M1764.77 284.909V378H1745.09V284.909H1764.77Z" fill="black"/>
<path d="M1831.47 311.682C1831.1 308.015 1829.54 305.167 1826.79 303.136C1824.03 301.106 1820.29 300.091 1815.56 300.091C1812.35 300.091 1809.63 300.545 1807.42 301.454C1805.21 302.333 1803.51 303.56 1802.33 305.136C1801.18 306.712 1800.6 308.5 1800.6 310.5C1800.54 312.167 1800.89 313.621 1801.65 314.864C1802.44 316.106 1803.51 317.182 1804.88 318.091C1806.24 318.97 1807.82 319.742 1809.6 320.409C1811.39 321.045 1813.3 321.591 1815.33 322.045L1823.69 324.045C1827.75 324.954 1831.48 326.167 1834.88 327.682C1838.27 329.197 1841.21 331.06 1843.69 333.273C1846.18 335.485 1848.1 338.091 1849.47 341.091C1850.86 344.091 1851.57 347.53 1851.6 351.409C1851.57 357.106 1850.12 362.045 1847.24 366.227C1844.39 370.379 1840.27 373.606 1834.88 375.909C1829.51 378.182 1823.04 379.318 1815.47 379.318C1807.95 379.318 1801.41 378.167 1795.83 375.864C1790.28 373.56 1785.95 370.151 1782.83 365.636C1779.74 361.091 1778.12 355.47 1777.97 348.773H1797.01C1797.22 351.894 1798.12 354.5 1799.69 356.591C1801.3 358.651 1803.44 360.212 1806.1 361.273C1808.8 362.303 1811.85 362.818 1815.24 362.818C1818.57 362.818 1821.47 362.333 1823.92 361.364C1826.41 360.394 1828.33 359.045 1829.69 357.318C1831.06 355.591 1831.74 353.606 1831.74 351.364C1831.74 349.273 1831.12 347.515 1829.88 346.091C1828.66 344.667 1826.88 343.454 1824.51 342.454C1822.18 341.454 1819.32 340.545 1815.92 339.727L1805.79 337.182C1797.94 335.273 1791.74 332.288 1787.19 328.227C1782.65 324.167 1780.39 318.697 1780.42 311.818C1780.39 306.182 1781.89 301.257 1784.92 297.045C1787.98 292.833 1792.18 289.545 1797.51 287.182C1802.85 284.818 1808.91 283.636 1815.69 283.636C1822.6 283.636 1828.63 284.818 1833.79 287.182C1838.97 289.545 1843 292.833 1845.88 297.045C1848.75 301.257 1850.24 306.136 1850.33 311.682H1831.47Z" fill="black"/>
<path d="M1864.84 378V284.909H1927.57V301.136H1884.52V323.318H1924.34V339.545H1884.52V361.773H1927.75V378H1864.84Z" fill="black"/>
</svg>
